<mxfile host="www.draw.io" modified="2020-02-04T14:48:26.185Z" agent="Mozilla/5.0 (Windows NT 10.0; Win64; x64) AppleWebKit/537.36 (KHTML, like Gecko) Chrome/79.0.3945.117 Safari/537.36" etag="GLlqpXAaib_WFNZ3f0XJ" version="12.6.4" type="github">
  <diagram id="aXLdGU_kV2TTshU4usez" name="Page-1">
    <mxGraphModel dx="1422" dy="762" grid="1" gridSize="10" guides="1" tooltips="1" connect="1" arrows="1" fold="1" page="1" pageScale="1" pageWidth="827" pageHeight="1169" math="0" shadow="0">
      <root>
        <mxCell id="0"/>
        <mxCell id="1" parent="0"/>
        <mxCell id="2u9OrhuBSaxkkmq_U02D-1" value="+geojson обрез&lt;br&gt;+Сэмплирование" style="shape=cylinder;whiteSpace=wrap;html=1;boundedLbl=1;backgroundOutline=1;" parent="1" vertex="1">
          <mxGeometry x="42" y="60" width="120" height="160" as="geometry"/>
        </mxCell>
        <mxCell id="2u9OrhuBSaxkkmq_U02D-2" value="Фон:&lt;br&gt;--------------------&lt;br&gt;Действия с клиента:&lt;br&gt;x-&amp;gt;lon;&lt;br&gt;y-&amp;gt;lat;&lt;br&gt;z -&amp;gt; Сэмплирование&lt;br&gt;--------------------&lt;br&gt;Действия с CH:" style="whiteSpace=wrap;html=1;aspect=fixed;" parent="1" vertex="1">
          <mxGeometry x="292" y="60" width="160" height="160" as="geometry"/>
        </mxCell>
        <mxCell id="2u9OrhuBSaxkkmq_U02D-3" value="Сервис" style="text;html=1;align=center;verticalAlign=middle;resizable=0;points=[];autosize=1;" parent="1" vertex="1">
          <mxGeometry x="342" y="40" width="60" height="20" as="geometry"/>
        </mxCell>
        <mxCell id="2u9OrhuBSaxkkmq_U02D-5" value="" style="whiteSpace=wrap;html=1;aspect=fixed;fillColor=#ffffff;imageWidth=10;imageAspect=1;" parent="1" vertex="1">
          <mxGeometry x="652" y="60" width="160" height="160" as="geometry"/>
        </mxCell>
        <mxCell id="2u9OrhuBSaxkkmq_U02D-6" value="Клиент" style="text;html=1;align=center;verticalAlign=middle;resizable=0;points=[];autosize=1;" parent="1" vertex="1">
          <mxGeometry x="702" y="40" width="60" height="20" as="geometry"/>
        </mxCell>
        <mxCell id="2u9OrhuBSaxkkmq_U02D-7" value="" style="endArrow=classic;html=1;entryX=1;entryY=0.25;entryDx=0;entryDy=0;exitX=0;exitY=0.25;exitDx=0;exitDy=0;" parent="1" source="2u9OrhuBSaxkkmq_U02D-5" target="2u9OrhuBSaxkkmq_U02D-2" edge="1">
          <mxGeometry width="50" height="50" relative="1" as="geometry">
            <mxPoint x="42" y="290" as="sourcePoint"/>
            <mxPoint x="92" y="240" as="targetPoint"/>
          </mxGeometry>
        </mxCell>
        <mxCell id="2u9OrhuBSaxkkmq_U02D-8" value="" style="endArrow=classic;html=1;entryX=0;entryY=0.75;entryDx=0;entryDy=0;exitX=1;exitY=0.75;exitDx=0;exitDy=0;" parent="1" source="2u9OrhuBSaxkkmq_U02D-2" target="2u9OrhuBSaxkkmq_U02D-5" edge="1">
          <mxGeometry width="50" height="50" relative="1" as="geometry">
            <mxPoint x="42" y="290" as="sourcePoint"/>
            <mxPoint x="92" y="240" as="targetPoint"/>
          </mxGeometry>
        </mxCell>
        <mxCell id="2u9OrhuBSaxkkmq_U02D-9" value="" style="endArrow=classic;html=1;exitX=0;exitY=0.25;exitDx=0;exitDy=0;entryX=1;entryY=0.3;entryDx=0;entryDy=0;" parent="1" source="2u9OrhuBSaxkkmq_U02D-2" target="2u9OrhuBSaxkkmq_U02D-1" edge="1">
          <mxGeometry width="50" height="50" relative="1" as="geometry">
            <mxPoint x="262" y="90" as="sourcePoint"/>
            <mxPoint x="192" y="120" as="targetPoint"/>
          </mxGeometry>
        </mxCell>
        <mxCell id="2u9OrhuBSaxkkmq_U02D-10" value="Запрос Extent" style="text;html=1;align=center;verticalAlign=middle;resizable=0;points=[];autosize=1;" parent="1" vertex="1">
          <mxGeometry x="179" y="80" width="90" height="20" as="geometry"/>
        </mxCell>
        <mxCell id="2u9OrhuBSaxkkmq_U02D-11" value="" style="endArrow=classic;html=1;entryX=0;entryY=0.5;entryDx=0;entryDy=0;exitX=1;exitY=0.7;exitDx=0;exitDy=0;" parent="1" source="2u9OrhuBSaxkkmq_U02D-1" target="2u9OrhuBSaxkkmq_U02D-2" edge="1">
          <mxGeometry width="50" height="50" relative="1" as="geometry">
            <mxPoint x="42" y="290" as="sourcePoint"/>
            <mxPoint x="92" y="240" as="targetPoint"/>
          </mxGeometry>
        </mxCell>
        <mxCell id="2u9OrhuBSaxkkmq_U02D-13" value="x, y, z" style="text;html=1;align=center;verticalAlign=middle;resizable=0;points=[];autosize=1;fillColor=#d5e8d4;strokeColor=#82b366;" parent="1" vertex="1">
          <mxGeometry x="522" y="80" width="50" height="20" as="geometry"/>
        </mxCell>
        <mxCell id="2u9OrhuBSaxkkmq_U02D-14" value="pbf" style="text;html=1;align=center;verticalAlign=middle;resizable=0;points=[];autosize=1;fillColor=#d5e8d4;strokeColor=#82b366;" parent="1" vertex="1">
          <mxGeometry x="532" y="160" width="30" height="20" as="geometry"/>
        </mxCell>
        <mxCell id="2u9OrhuBSaxkkmq_U02D-15" value="geojson" style="shape=cylinder;whiteSpace=wrap;html=1;boundedLbl=1;backgroundOutline=1;" parent="1" vertex="1">
          <mxGeometry x="42" y="334" width="120" height="160" as="geometry"/>
        </mxCell>
        <mxCell id="2u9OrhuBSaxkkmq_U02D-16" value="Фон:&lt;br&gt;geojson-&amp;gt;geojsonvt&lt;br&gt;--------------------&lt;br&gt;Действия с клиента:&lt;br&gt;--------------------&lt;br&gt;Действия с CH:" style="whiteSpace=wrap;html=1;aspect=fixed;" parent="1" vertex="1">
          <mxGeometry x="292" y="334" width="160" height="160" as="geometry"/>
        </mxCell>
        <mxCell id="2u9OrhuBSaxkkmq_U02D-17" value="Сервис" style="text;html=1;align=center;verticalAlign=middle;resizable=0;points=[];autosize=1;" parent="1" vertex="1">
          <mxGeometry x="342" y="314" width="60" height="20" as="geometry"/>
        </mxCell>
        <mxCell id="2u9OrhuBSaxkkmq_U02D-18" value="Клиент" style="text;html=1;align=center;verticalAlign=middle;resizable=0;points=[];autosize=1;" parent="1" vertex="1">
          <mxGeometry x="702" y="314" width="60" height="20" as="geometry"/>
        </mxCell>
        <mxCell id="2u9OrhuBSaxkkmq_U02D-19" value="" style="whiteSpace=wrap;html=1;aspect=fixed;" parent="1" vertex="1">
          <mxGeometry x="652" y="334" width="160" height="160" as="geometry"/>
        </mxCell>
        <mxCell id="2u9OrhuBSaxkkmq_U02D-20" value="" style="endArrow=classic;html=1;entryX=1;entryY=0.25;entryDx=0;entryDy=0;exitX=0;exitY=0.25;exitDx=0;exitDy=0;" parent="1" source="2u9OrhuBSaxkkmq_U02D-19" target="2u9OrhuBSaxkkmq_U02D-16" edge="1">
          <mxGeometry width="50" height="50" relative="1" as="geometry">
            <mxPoint x="42" y="564" as="sourcePoint"/>
            <mxPoint x="92" y="514" as="targetPoint"/>
          </mxGeometry>
        </mxCell>
        <mxCell id="2u9OrhuBSaxkkmq_U02D-21" value="" style="endArrow=classic;html=1;entryX=0;entryY=0.75;entryDx=0;entryDy=0;exitX=1;exitY=0.75;exitDx=0;exitDy=0;" parent="1" source="2u9OrhuBSaxkkmq_U02D-16" target="2u9OrhuBSaxkkmq_U02D-19" edge="1">
          <mxGeometry width="50" height="50" relative="1" as="geometry">
            <mxPoint x="42" y="564" as="sourcePoint"/>
            <mxPoint x="92" y="514" as="targetPoint"/>
          </mxGeometry>
        </mxCell>
        <mxCell id="2u9OrhuBSaxkkmq_U02D-22" value="pbf" style="text;html=1;align=center;verticalAlign=middle;resizable=0;points=[];autosize=1;fillColor=#d5e8d4;strokeColor=#82b366;" parent="1" vertex="1">
          <mxGeometry x="532" y="434" width="30" height="20" as="geometry"/>
        </mxCell>
        <mxCell id="2u9OrhuBSaxkkmq_U02D-23" value="x, y, z" style="text;html=1;align=center;verticalAlign=middle;resizable=0;points=[];autosize=1;fillColor=#d5e8d4;strokeColor=#82b366;" parent="1" vertex="1">
          <mxGeometry x="522" y="354" width="50" height="20" as="geometry"/>
        </mxCell>
        <mxCell id="2u9OrhuBSaxkkmq_U02D-24" value="" style="endArrow=classic;html=1;entryX=0;entryY=0.5;entryDx=0;entryDy=0;exitX=1;exitY=0.7;exitDx=0;exitDy=0;" parent="1" source="2u9OrhuBSaxkkmq_U02D-15" target="2u9OrhuBSaxkkmq_U02D-16" edge="1">
          <mxGeometry width="50" height="50" relative="1" as="geometry">
            <mxPoint x="42" y="564" as="sourcePoint"/>
            <mxPoint x="92" y="514" as="targetPoint"/>
          </mxGeometry>
        </mxCell>
        <mxCell id="2u9OrhuBSaxkkmq_U02D-25" value="" style="endArrow=classic;html=1;exitX=0;exitY=0.25;exitDx=0;exitDy=0;entryX=1;entryY=0.3;entryDx=0;entryDy=0;" parent="1" source="2u9OrhuBSaxkkmq_U02D-16" target="2u9OrhuBSaxkkmq_U02D-15" edge="1">
          <mxGeometry width="50" height="50" relative="1" as="geometry">
            <mxPoint x="262" y="364" as="sourcePoint"/>
            <mxPoint x="192" y="394" as="targetPoint"/>
          </mxGeometry>
        </mxCell>
        <mxCell id="2u9OrhuBSaxkkmq_U02D-28" value="" style="endArrow=none;dashed=1;html=1;" parent="1" edge="1">
          <mxGeometry width="50" height="50" relative="1" as="geometry">
            <mxPoint x="42" y="280" as="sourcePoint"/>
            <mxPoint x="812" y="280" as="targetPoint"/>
          </mxGeometry>
        </mxCell>
        <mxCell id="2u9OrhuBSaxkkmq_U02D-30" value="&lt;span style=&quot;white-space: normal&quot;&gt;CH&lt;/span&gt;" style="text;html=1;align=center;verticalAlign=middle;resizable=0;points=[];autosize=1;" parent="1" vertex="1">
          <mxGeometry x="87" y="40" width="30" height="20" as="geometry"/>
        </mxCell>
        <mxCell id="2u9OrhuBSaxkkmq_U02D-32" value="&lt;span style=&quot;white-space: normal&quot;&gt;CH&lt;/span&gt;" style="text;html=1;align=center;verticalAlign=middle;resizable=0;points=[];autosize=1;" parent="1" vertex="1">
          <mxGeometry x="87" y="314" width="30" height="20" as="geometry"/>
        </mxCell>
        <mxCell id="2u9OrhuBSaxkkmq_U02D-34" value="Запрос" style="text;html=1;align=center;verticalAlign=middle;resizable=0;points=[];autosize=1;" parent="1" vertex="1">
          <mxGeometry x="194" y="354" width="60" height="20" as="geometry"/>
        </mxCell>
        <mxCell id="A3EjPKBnRZNq92b88yFs-18" value="" style="shape=cylinder;whiteSpace=wrap;html=1;boundedLbl=1;backgroundOutline=1;" parent="1" vertex="1">
          <mxGeometry x="42" y="720" width="120" height="160" as="geometry"/>
        </mxCell>
        <mxCell id="A3EjPKBnRZNq92b88yFs-19" value="" style="whiteSpace=wrap;html=1;aspect=fixed;" parent="1" vertex="1">
          <mxGeometry x="292" y="720" width="160" height="160" as="geometry"/>
        </mxCell>
        <mxCell id="A3EjPKBnRZNq92b88yFs-20" value="Сервис" style="text;html=1;align=center;verticalAlign=middle;resizable=0;points=[];autosize=1;" parent="1" vertex="1">
          <mxGeometry x="342" y="700" width="60" height="20" as="geometry"/>
        </mxCell>
        <mxCell id="A3EjPKBnRZNq92b88yFs-21" value="" style="whiteSpace=wrap;html=1;aspect=fixed;fillColor=#ffffff;imageWidth=10;imageAspect=1;" parent="1" vertex="1">
          <mxGeometry x="652" y="720" width="160" height="160" as="geometry"/>
        </mxCell>
        <mxCell id="A3EjPKBnRZNq92b88yFs-22" value="Клиент" style="text;html=1;align=center;verticalAlign=middle;resizable=0;points=[];autosize=1;" parent="1" vertex="1">
          <mxGeometry x="702" y="700" width="60" height="20" as="geometry"/>
        </mxCell>
        <mxCell id="A3EjPKBnRZNq92b88yFs-23" value="" style="endArrow=classic;html=1;entryX=1;entryY=0.25;entryDx=0;entryDy=0;exitX=0;exitY=0.25;exitDx=0;exitDy=0;" parent="1" source="A3EjPKBnRZNq92b88yFs-21" target="A3EjPKBnRZNq92b88yFs-19" edge="1">
          <mxGeometry width="50" height="50" relative="1" as="geometry">
            <mxPoint x="42" y="950" as="sourcePoint"/>
            <mxPoint x="92" y="900" as="targetPoint"/>
          </mxGeometry>
        </mxCell>
        <mxCell id="A3EjPKBnRZNq92b88yFs-24" value="" style="endArrow=classic;html=1;entryX=0;entryY=0.75;entryDx=0;entryDy=0;exitX=1;exitY=0.75;exitDx=0;exitDy=0;" parent="1" source="A3EjPKBnRZNq92b88yFs-19" target="A3EjPKBnRZNq92b88yFs-21" edge="1">
          <mxGeometry width="50" height="50" relative="1" as="geometry">
            <mxPoint x="42" y="950" as="sourcePoint"/>
            <mxPoint x="92" y="900" as="targetPoint"/>
          </mxGeometry>
        </mxCell>
        <mxCell id="A3EjPKBnRZNq92b88yFs-25" value="" style="endArrow=classic;html=1;exitX=0;exitY=0.25;exitDx=0;exitDy=0;entryX=1;entryY=0.3;entryDx=0;entryDy=0;" parent="1" source="A3EjPKBnRZNq92b88yFs-19" target="A3EjPKBnRZNq92b88yFs-18" edge="1">
          <mxGeometry width="50" height="50" relative="1" as="geometry">
            <mxPoint x="262" y="750" as="sourcePoint"/>
            <mxPoint x="192" y="780" as="targetPoint"/>
          </mxGeometry>
        </mxCell>
        <mxCell id="A3EjPKBnRZNq92b88yFs-26" value="Запрос Extent" style="text;html=1;align=center;verticalAlign=middle;resizable=0;points=[];autosize=1;" parent="1" vertex="1">
          <mxGeometry x="179" y="740" width="90" height="20" as="geometry"/>
        </mxCell>
        <mxCell id="A3EjPKBnRZNq92b88yFs-27" value="" style="endArrow=classic;html=1;entryX=0;entryY=0.5;entryDx=0;entryDy=0;exitX=1;exitY=0.7;exitDx=0;exitDy=0;" parent="1" source="A3EjPKBnRZNq92b88yFs-18" target="A3EjPKBnRZNq92b88yFs-19" edge="1">
          <mxGeometry width="50" height="50" relative="1" as="geometry">
            <mxPoint x="42" y="950" as="sourcePoint"/>
            <mxPoint x="92" y="900" as="targetPoint"/>
          </mxGeometry>
        </mxCell>
        <mxCell id="A3EjPKBnRZNq92b88yFs-28" value="x, y, z" style="text;html=1;align=center;verticalAlign=middle;resizable=0;points=[];autosize=1;fillColor=#d5e8d4;strokeColor=#82b366;" parent="1" vertex="1">
          <mxGeometry x="522" y="740" width="50" height="20" as="geometry"/>
        </mxCell>
        <mxCell id="A3EjPKBnRZNq92b88yFs-29" value="pbf" style="text;html=1;align=center;verticalAlign=middle;resizable=0;points=[];autosize=1;fillColor=#d5e8d4;strokeColor=#82b366;" parent="1" vertex="1">
          <mxGeometry x="532" y="820" width="30" height="20" as="geometry"/>
        </mxCell>
        <mxCell id="A3EjPKBnRZNq92b88yFs-30" value="&lt;span style=&quot;white-space: normal&quot;&gt;CH&lt;/span&gt;" style="text;html=1;align=center;verticalAlign=middle;resizable=0;points=[];autosize=1;" parent="1" vertex="1">
          <mxGeometry x="87" y="700" width="30" height="20" as="geometry"/>
        </mxCell>
        <mxCell id="A3EjPKBnRZNq92b88yFs-31" value="" style="endArrow=none;dashed=1;html=1;" parent="1" edge="1">
          <mxGeometry width="50" height="50" relative="1" as="geometry">
            <mxPoint x="40" y="580" as="sourcePoint"/>
            <mxPoint x="810" y="580" as="targetPoint"/>
          </mxGeometry>
        </mxCell>
        <mxCell id="A3EjPKBnRZNq92b88yFs-32" value="НОВОЕ" style="text;html=1;align=center;verticalAlign=middle;resizable=0;points=[];autosize=1;" parent="1" vertex="1">
          <mxGeometry y="610" width="60" height="20" as="geometry"/>
        </mxCell>
        <mxCell id="A3EjPKBnRZNq92b88yFs-33" value="СТАРОЕ" style="text;html=1;align=center;verticalAlign=middle;resizable=0;points=[];autosize=1;" parent="1" vertex="1">
          <mxGeometry y="294" width="60" height="20" as="geometry"/>
        </mxCell>
        <mxCell id="A3EjPKBnRZNq92b88yFs-34" value="ТЗ" style="text;html=1;align=center;verticalAlign=middle;resizable=0;points=[];autosize=1;" parent="1" vertex="1">
          <mxGeometry x="5" y="10" width="30" height="20" as="geometry"/>
        </mxCell>
      </root>
    </mxGraphModel>
  </diagram>
</mxfile>
